# xmcd CD Database Entry
#
# Track frame offsets:
# 150
# 13527
# 26240
# 44800
# 61638
# 71830
# 83072
# 98295
# 114212
# 130203
#
# Disc length: 2361 seconds
#
# Revision: 1
# Processed by: cddbd v1.4PL0 Copyright (c) Steve Scherf et al.
# Submitted via: tcd 2.0b
#
DISCID=7909370a
DTITLE=Heroine Sheiks
DYEAR=1900
DGENRE=
TTITLE0=Army Brat
TTITLE1=Grab the Wheel
TTITLE2=3-Banger
TTITLE3=Let It Die
TTITLE4=Open You Up
TTITLE5=My Boss
TTITLE6=Kiss It
TTITLE7=Little Schoolgirl
TTITLE8=Best Enemies
TTITLE9=Mas Suicide
EXTD=
EXTT0=
EXTT1=
EXTT2=
EXTT3=
EXTT4=
EXTT5=
EXTT6=
EXTT7=
EXTT8=
EXTT9=
PLAYORDER=
